<svg width="155" height="28" viewBox="0 0 155 28" fill="none" xmlns="http://www.w3.org/2000/svg">
<path d="M22.104 27.036L24.876 25.02L13.752 0.467998L11.448 2.16L10.98 2.484L11.124 2.88L0.468 26.856L0.972 27.072L3.996 20.268C8.892 20.16 13.176 18.252 18 18.036L22.104 27.036ZM4.248 19.692L11.448 3.564L17.748 17.496C13.104 17.748 8.964 19.548 4.248 19.692ZM48.4546 6.732C45.6826 6.732 43.7026 8.244 43.0546 10.62C42.2626 8.136 40.1386 6.732 36.6106 6.732C34.4866 6.624 32.4706 7.812 31.5346 9.72V7.308L28.1866 7.884V27L31.5346 26.46V12.924C31.5346 9.576 33.2266 7.308 36.0346 7.308C38.8786 7.308 39.9946 10.116 39.9946 12.924V27L43.3786 26.46V12.924C43.3786 9.576 45.0706 7.308 47.8786 7.308C50.6866 7.308 51.8026 10.116 51.8026 12.924V27L55.1866 26.46V12.924C55.1866 9 52.9546 6.732 48.4546 6.732ZM70.6163 26.46C67.2683 26.46 62.7323 23.652 62.7323 16.884V16.848C67.4483 16.704 71.5163 14.616 76.2683 14.616H79.4363C79.1123 12.168 77.7443 9.936 75.6923 8.496C75.6562 8.46 75.5843 8.424 75.5123 8.388C75.4043 8.316 75.2963 8.244 75.1523 8.172C75.0443 8.1 74.9363 8.064 74.8283 7.992C74.7203 7.92 74.5763 7.848 74.4323 7.776C74.3243 7.74 74.2163 7.704 74.1083 7.632C73.9643 7.596 73.8203 7.524 73.7123 7.488C73.5683 7.416 73.4603 7.38 73.3163 7.344C73.2083 7.308 73.0643 7.236 72.9203 7.2C72.7763 7.164 72.6323 7.128 72.5243 7.092C72.3803 7.056 72.2363 7.056 72.0923 7.02C71.9483 6.984 71.8043 6.948 71.6603 6.912C71.5163 6.912 71.4083 6.876 71.2643 6.876C71.0843 6.84 70.9043 6.84 70.7243 6.804C70.6163 6.804 70.5083 6.768 70.4003 6.768C70.1123 6.768 69.7883 6.732 69.5003 6.732C63.8843 6.732 59.3843 10.116 59.3843 16.884C59.3843 17.28 59.3843 17.64 59.4203 18C59.8883 24.012 64.2083 27.036 69.5003 27.036C71.8403 27.036 75.1163 25.884 76.8083 24.192L76.2683 23.076C75.0083 25.02 72.9203 26.28 70.6163 26.46ZM68.3843 7.308C68.6003 7.308 68.8523 7.308 69.1043 7.344C69.1403 7.344 69.2123 7.38 69.2843 7.38C69.5003 7.416 69.6803 7.452 69.8963 7.488C69.9323 7.488 70.0043 7.524 70.0403 7.524C70.2923 7.596 70.5443 7.668 70.7963 7.776C70.8323 7.776 70.9043 7.812 70.9403 7.812C71.1563 7.92 71.3723 7.992 71.5523 8.1C71.6243 8.136 71.6963 8.172 71.7323 8.208C71.9843 8.316 72.2363 8.46 72.4883 8.64C72.7403 8.82 72.9563 9 73.1723 9.18C73.2083 9.216 73.2803 9.288 73.3523 9.324C73.5323 9.504 73.7123 9.684 73.8563 9.864C73.9283 9.9 73.9643 9.972 74.0003 10.008C74.1803 10.26 74.3963 10.476 74.5763 10.764C75.2243 11.772 75.6923 12.888 75.9443 14.076C71.3363 14.148 67.3403 16.128 62.7683 16.308C62.8403 11.952 64.0643 7.308 68.3843 7.308ZM79.4362 0.539999L79.9762 1.116C81.0923 1.116 82.7843 1.692 82.7843 5.616V27L86.1683 26.46V5.616C86.1683 1.692 82.7843 0.539999 79.4362 0.539999ZM91.4318 27.036L94.7798 26.46V7.308L91.4318 7.884V27.036ZM93.0878 5.616C94.0238 5.616 94.7798 4.86 94.7798 3.924C94.7798 2.988 94.0238 2.232 93.0878 2.232C92.1878 2.232 91.4318 2.988 91.4318 3.924C91.4318 4.86 92.1878 5.616 93.0878 5.616ZM116.03 7.308V8.928C114.086 7.452 111.71 6.66 109.262 6.732C103.646 6.732 99.146 10.116 99.146 16.884C99.146 23.652 103.646 27 109.262 27C111.71 27.072 114.086 26.316 116.03 24.84V27L119.414 26.46V6.732L116.03 7.308ZM110.378 26.46C106.994 26.46 102.494 23.652 102.494 16.884C102.494 12.384 103.646 7.308 108.146 7.308C111.134 7.452 113.978 8.748 116.03 10.944V23.364C114.734 25.2 112.646 26.352 110.378 26.46ZM150.9 1.116H140.172V0.539999L136.824 1.116V27L140.172 26.46V14.04C143.7 13.824 146.76 11.808 150.324 11.808V11.232C146.76 11.232 143.7 13.284 140.172 13.464V1.692H150.9V3.348L154.248 2.808V0.539999L150.9 1.116Z" fill="#161616"/>
</svg>
